<svg xmlns="http://www.w3.org/2000/svg" width="41.956" height="41.958" viewBox="0 0 41.956 41.958"><defs><style>.a{fill:#00de91;}.b{fill:#f9f9f9;}</style></defs><g transform="translate(0 0)"><path class="a" d="M162.254,312.952l1.84-4.8a1.311,1.311,0,0,0-.4-1.49l-3.991-3.236-.807-5.08a1.312,1.312,0,0,0-1.091-1.088l-5.078-.807-3.233-3.995a1.316,1.316,0,0,0-1.487-.4l-4.8,1.844-4.8-1.842a1.31,1.31,0,0,0-1.487.4l-3.236,3.995-5.08.807a1.314,1.314,0,0,0-1.088,1.089l-.808,5.078-3.993,3.236a1.314,1.314,0,0,0-.4,1.487l1.84,4.8-1.84,4.8a1.31,1.31,0,0,0,.4,1.487l3.993,3.233.808,5.078a1.311,1.311,0,0,0,1.088,1.091l5.08.807,3.236,3.991a1.305,1.305,0,0,0,1.49.4L143.2,332l4.8,1.842a1.328,1.328,0,0,0,.469.085,1.306,1.306,0,0,0,1.02-.488l3.233-3.991,5.078-.807a1.315,1.315,0,0,0,1.091-1.091l.807-5.078,3.991-3.233a1.307,1.307,0,0,0,.4-1.487Z" transform="translate(-122.225 -291.972)"/><g transform="translate(13.111 10.49)"><path class="b" d="M136.3,307.952a3.933,3.933,0,1,1,3.933-3.934A3.939,3.939,0,0,1,136.3,307.952Zm0-5.244a1.311,1.311,0,1,0,1.311,1.31A1.311,1.311,0,0,0,136.3,302.708Z" transform="translate(-132.364 -300.083)"/><path class="b" d="M142.381,318.09a3.933,3.933,0,1,1,3.933-3.934A3.939,3.939,0,0,1,142.381,318.09Zm0-5.244a1.311,1.311,0,1,0,1.311,1.31A1.314,1.314,0,0,0,142.381,312.846Z" transform="translate(-130.58 -297.11)"/><path class="b" d="M133.675,321.063a1.311,1.311,0,0,1-1.064-2.074l13.111-18.355a1.311,1.311,0,0,1,2.135,1.523l-13.112,18.355A1.315,1.315,0,0,1,133.675,321.063Z" transform="translate(-132.364 -300.084)"/></g></g></svg>